<?xml version="1.0" encoding="utf-8"?>
<!-- Generator: Adobe Illustrator 26.2.0, SVG Export Plug-In . SVG Version: 6.00 Build 0)  -->
<svg version="1.1" id="Layer_1" xmlns="http://www.w3.org/2000/svg" xmlns:xlink="http://www.w3.org/1999/xlink" x="0px" y="0px"
	 viewBox="0 0 2834.6 1417.3" style="enable-background:new 0 0 2834.6 1417.3;" xml:space="preserve">
<path d="M1828.9,183.8L1425.6,18.1l-405.8,167.2L853.6,585l167.8,402.7l403.2,165.7l405.8-167.2l166.2-399.6L1828.9,183.8
	L1828.9,183.8z M1646.8,967.7H1204L982.4,586L1204,204.4h442.7L1867.9,586L1646.8,967.7L1646.8,967.7z"/>
<polygon points="1804.8,586 1804.8,586 1798.1,591.2 1798.1,591.2 1730.9,639.4 1730.9,639.4 1721.7,646.1 1711.9,652.2 
	1702.2,657.9 1691.9,663 1682.2,668.1 1671.9,672.2 1661.1,676.3 1650.9,679.9 1640.1,682.5 1629.8,685.6 1619.1,687.6 
	1608.3,689.2 1597.5,690.7 1586.7,691.2 1575.5,691.7 1564.7,691.7 1553.9,691.2 1543.1,690.7 1532.4,689.2 1521.6,687.6 
	1510.8,685.6 1500.6,682.5 1489.8,679.4 1479.5,676.3 1469.3,672.2 1459,668.1 1449.2,663 1439,657.9 1429.2,652.2 1420,646.1 
	1410.3,639.4 1401,632.7 1401,632.7 1384.6,620.4 1376.4,614.8 1367.7,609.1 1359,604 1350.2,599.4 1341.5,594.8 1332.3,590.7 
	1323,586.6 1313.8,583 1304.6,579.9 1294.8,576.8 1285.1,574.2 1275.3,571.7 1265.1,569.6 1254.8,568.1 1254.8,568.1 1243,566.6 
	1231.2,565.5 1219.4,565.5 1207.6,565.5 1195.8,565.5 1184,566.6 1172.2,568.1 1160.9,569.6 1160.9,569.6 1105.5,577.3 
	1050.6,584.5 1050.6,584.5 1045.5,585 1045.5,585 1081.4,558.9 1081.4,558.9 1119.9,531.7 1119.9,531.7 1129.6,525 1139.4,518.8 
	1149.1,513.2 1158.9,508.1 1169.1,502.9 1179.4,498.8 1190.2,494.7 1200.4,491.6 1211.2,488.6 1222,486 1232.2,484 1243,481.9 
	1254.3,480.9 1265.1,479.9 1275.8,479.9 1286.6,479.9 1297.4,480.4 1308.2,481.4 1318.9,482.4 1329.7,484.5 1340.5,486.5 
	1351.3,489.1 1361.5,492.2 1372.3,495.8 1382.6,499.9 1392.8,504.5 1402.6,509.1 1412.3,514.2 1422.1,520.4 1431.8,526.5 
	1441,532.7 1450.3,539.9 1450.3,539.9 1462.1,548.6 1473.9,556.8 1485.7,564.5 1497.5,571.2 1509.8,577.8 1522.6,583.5 
	1535.4,588.6 1548.3,592.7 1561.1,596.8 1574.4,599.9 1587.8,602.5 1601.6,604.5 1615.5,605.5 1629.8,606.1 1644.2,606.1 
	1658.6,605.5 1658.6,605.5 1681.1,603.5 1703.2,600.4 1747.8,593.7 1747.8,593.7 "/>
<path d="M515,1271.5l10.8-25.7l-42.1-51.3H317.5l-87.2,204.7H454l90.3-77l21.5-50.8L515,1271.5L515,1271.5z M346.8,1245.8h102.1
	l16.9,20.5l-2.1,5.1H336L346.8,1245.8L346.8,1245.8z M437.6,1347.9H303.1l10.8-25.7h153.4L437.6,1347.9L437.6,1347.9z"/>
<polygon points="600.7,1399.2 558.6,1347.9 624.3,1194.5 675.1,1194.5 618.1,1327.4 635.6,1347.9 661.2,1347.9 639.2,1399.2 "/>
<polygon points="664.8,1399.2 697.7,1322.2 757.7,1271.5 949.6,1271.5 895.2,1399.2 843.9,1399.2 876.7,1322.2 774.1,1322.2 
	744.3,1347.9 840.3,1347.9 818.2,1399.2 "/>
<polygon points="920.3,1399.2 953.2,1322.2 1013.2,1271.5 1205,1271.5 1183.5,1322.2 1030.1,1322.2 999.8,1347.9 1172.2,1347.9 
	1150.7,1399.2 "/>
<polygon points="1176.3,1399.2 1263.5,1194.5 1314.3,1194.5 1259.9,1322.2 1266.6,1322.2 1326.6,1271.5 1461,1271.5 1439,1322.2 
	1343.1,1322.2 1313.3,1347.9 1428.2,1347.9 1406.2,1399.2 1278.4,1399.2 1257.4,1373.5 1238.4,1373.5 1227.1,1399.2 "/>
<polygon points="1497.5,1399.2 1455.4,1347.9 1487.7,1271.5 1539,1271.5 1514.9,1327.4 1531.8,1347.9 1551.3,1347.9 1590.8,1314 
	1609.3,1271.5 1666.8,1271.5 1634.5,1347.9 1573.9,1399.2 "/>
<polygon points="1612.4,1399.2 1634.5,1347.9 1659.6,1347.9 1699.6,1314 1718.1,1271.5 1769.4,1271.5 1736.5,1347.9 1676.5,1399.2 
	"/>
<polygon points="1740.1,1399.2 1773,1322.2 1833,1271.5 2024.9,1271.5 1970.5,1399.2 1919.2,1399.2 1952,1322.2 1849.9,1322.2 
	1819.7,1347.9 1915.6,1347.9 1893.5,1399.2 "/>
<polygon points="2315.8,1399.2 2273.7,1347.9 2306,1271.5 2351.2,1271.5 2440.9,1194.5 2620,1194.5 2598.4,1245.8 2457.9,1245.8 
	2427.6,1271.5 2587.7,1271.5 2565.6,1322.2 2335.2,1322.2 2333.2,1327.4 2350.1,1347.9 2554.8,1347.9 2532.8,1399.2 "/>
<polygon points="2247.5,1344.3 2279.8,1270.4 2227,1270.4 2209,1313 2166.5,1349.4 2095.2,1348.9 2077.2,1327.4 2101.8,1271.5 
	2050.5,1271.5 2017.7,1347.9 2060.3,1399.2 2184.4,1398.7 "/>
</svg>
